<svg width="80" height="80" fill="none" xmlns="http://www.w3.org/2000/svg"><path d="M39.99 26.661c-7.346 0-13.34 5.994-13.34 13.339 0 7.345 5.994 13.339 13.34 13.339 7.344 0 13.338-5.994 13.338-13.339 0-7.345-5.994-13.339-13.339-13.339ZM79.995 40c0-5.524.05-10.997-.26-16.511-.31-6.405-1.772-12.088-6.455-16.771C68.588 2.024 62.914.573 56.511.263c-5.525-.31-10.998-.26-16.512-.26-5.523 0-10.997-.05-16.51.26C17.083.573 11.4 2.034 6.716 6.718 2.024 11.41.573 17.084.263 23.488-.047 29.014.003 34.487.003 40c0 5.514-.05 10.997.26 16.511.31 6.404 1.771 12.088 6.454 16.771 4.694 4.694 10.367 6.145 16.771 6.455 5.524.31 10.998.26 16.511.26 5.524 0 10.997.05 16.511-.26 6.404-.31 12.088-1.771 16.771-6.454 4.693-4.694 6.144-10.367 6.454-16.772.32-5.514.26-10.987.26-16.511ZM39.989 60.524c-11.357 0-20.523-9.166-20.523-20.524s9.166-20.524 20.523-20.524c11.358 0 20.524 9.166 20.524 20.524s-9.166 20.524-20.524 20.524Zm21.364-37.095a4.787 4.787 0 0 1-4.793-4.793 4.787 4.787 0 0 1 4.793-4.794 4.787 4.787 0 0 1 4.793 4.794 4.787 4.787 0 0 1-4.793 4.793Z" fill="#D32E5E"/></svg>