<svg width="80" height="80" fill="none" xmlns="http://www.w3.org/2000/svg"><path d="M70.037 17.11a21.944 21.944 0 0 1-1.817-.918 24.98 24.98 0 0 1-4.666-3.436c-3.48-3.451-4.78-6.953-5.26-9.405h.02c-.4-2.034-.235-3.351-.21-3.351H42.252v53.127c0 .714 0 1.419-.035 2.115 0 .087-.01.167-.015.26 0 .039 0 .079-.01.119v.03c-.167 1.906-.872 3.747-2.053 5.362-1.18 1.614-2.801 2.953-4.72 3.897-1.998.986-4.259 1.503-6.558 1.5-7.386 0-13.372-5.22-13.372-11.666 0-6.446 5.986-11.666 13.372-11.666 1.398-.001 2.787.19 4.117.565l.019-13.99a33.809 33.809 0 0 0-12.04.817c-3.906.99-7.532 2.671-10.65 4.937-2.732 2.057-5.03 4.512-6.788 7.254-.67 1-3.194 5.018-3.5 11.54-.192 3.701 1.09 7.536 1.702 9.12v.034c.385.934 1.875 4.118 4.304 6.803a30.826 30.826 0 0 0 6.866 5.615v-.033l.039.033c7.674 4.52 16.183 4.223 16.183 4.223 1.473-.052 6.407 0 12.01-2.301 6.215-2.552 9.753-6.354 9.753-6.354 2.26-2.271 4.058-4.86 5.315-7.654 1.434-3.268 1.913-7.188 1.913-8.755V26.747c.192.1 2.754 1.568 2.754 1.568s3.69 2.05 9.447 3.385c4.13.95 9.695 1.15 9.695 1.15V19.21c-1.95.184-5.909-.35-9.963-2.1Z" fill="#D32E5E"/></svg>